<svg xmlns="http://www.w3.org/2000/svg" viewBox="0 0 64 64" role="img" aria-label="AdvertBench A/B icon">
  <rect width="64" height="64" rx="12" fill="#181716"/>
  <path fill="#fff" d="M8 44h5.2l1.7-5h8.2l1.7 5H30L21.8 20h-5.6L8 44Zm8.4-9.5L19 26.8l2.6 7.7h-5.2Z"/>
  <path fill="#fff" d="M28.4 44 34.6 20h4.2l-6.2 24h-4.2Z" opacity=".76"/>
  <path fill="#fff" d="M37.2 44H48c5 0 8-2.5 8-6.7 0-2.8-1.6-4.9-4.3-5.7 2.2-.9 3.4-2.7 3.4-5.1 0-4-2.8-6.5-7.6-6.5H37.2v24Zm5-14.2v-5.3h4.5c2 0 3.2 1 3.2 2.7s-1.2 2.6-3.2 2.6h-4.5Zm0 9.7v-5.7h5.1c2.1 0 3.4 1.1 3.4 2.9 0 1.9-1.2 2.8-3.4 2.8h-5.1Z"/>
</svg>
